<svg xmlns="http://www.w3.org/2000/svg" width="38" height="38" viewBox="0 0 38 38">
  <path id="linkedin_1_" data-name="linkedin (1)" d="M35.26,0H2.741A2.741,2.741,0,0,0,0,2.741V35.26A2.741,2.741,0,0,0,2.741,38H35.26A2.741,2.741,0,0,0,38,35.26V2.741A2.741,2.741,0,0,0,35.26,0ZM13.479,28.723H8.852V14.8h4.627ZM11.166,12.9h-.03A2.412,2.412,0,1,1,11.2,8.09a2.413,2.413,0,1,1-.031,4.81Zm19,15.823H25.538V21.275c0-1.872-.67-3.148-2.344-3.148a2.533,2.533,0,0,0-2.374,1.692,3.169,3.169,0,0,0-.152,1.129v7.774H16.04s.061-12.616,0-13.922h4.627v1.971a4.594,4.594,0,0,1,4.17-2.3c3.044,0,5.327,1.99,5.327,6.266Zm0,0" transform="translate(0)" fill="#707070"/>
</svg>
