<svg id="star" xmlns="http://www.w3.org/2000/svg" width="61.567" height="61.567" viewBox="0 0 61.567 61.567">
  <path id="Path_126" data-name="Path 126" d="M30.784,0,40.3,10.353l21.271,1.66L46.176,20.073l3.634,11.38L30.784,26.079,11.758,31.452l3.634-11.38L0,12.014l21.271-1.66Z" fill="#7affd5"/>
  <path id="Path_127" data-name="Path 127" d="M97.783,252.367V222.252l19.025-5.373v30.115Z" transform="translate(-86.025 -190.8)" fill="#1ee3a5"/>
  <path id="Path_128" data-name="Path 128" d="M275.025,222.252v30.115L256,246.994V216.879Z" transform="translate(-225.216 -190.8)" fill="#15aa78"/>
  <path id="Path_129" data-name="Path 129" d="M387.633,136.179l11.758-6.156V99.907L384,107.966l3.634,11.38Z" transform="translate(-337.824 -87.893)" fill="#1ee3a5"/>
  <path id="Path_130" data-name="Path 130" d="M460.491,103.149v30.115l6.194-3.243V99.906Z" transform="translate(-405.117 -87.892)" fill="#1cd198"/>
  <path id="Path_131" data-name="Path 131" d="M0,99.907v30.115l11.758,6.156V119.345l3.634-11.38Z" transform="translate(0 -87.893)" fill="#15aa78"/>
</svg>
